<mxfile host="app.diagrams.net" modified="2023-10-16T06:03:42.267Z" agent="Mozilla/5.0 (Windows NT 10.0; Win64; x64; rv:109.0) Gecko/20100101 Firefox/118.0" etag="TpL16d_xRYUpuXarMGt_" version="22.0.4" type="device">
  <diagram name="Page-1" id="WapshpYxWD-JxR8dck_9">
    <mxGraphModel dx="778" dy="419" grid="1" gridSize="10" guides="1" tooltips="1" connect="1" arrows="1" fold="1" page="1" pageScale="1" pageWidth="827" pageHeight="1450" math="0" shadow="0">
      <root>
        <mxCell id="0" />
        <mxCell id="1" parent="0" />
        <mxCell id="cmy7u_Me6npO2hH-PfEE-6" style="edgeStyle=orthogonalEdgeStyle;rounded=0;orthogonalLoop=1;jettySize=auto;html=1;exitX=0.5;exitY=1;exitDx=0;exitDy=0;entryX=0.5;entryY=0;entryDx=0;entryDy=0;" edge="1" parent="1" source="cmy7u_Me6npO2hH-PfEE-1" target="cmy7u_Me6npO2hH-PfEE-40">
          <mxGeometry relative="1" as="geometry">
            <mxPoint x="103" y="120" as="targetPoint" />
            <Array as="points">
              <mxPoint x="103" y="120" />
            </Array>
          </mxGeometry>
        </mxCell>
        <mxCell id="cmy7u_Me6npO2hH-PfEE-1" value="Sākums" style="ellipse;whiteSpace=wrap;html=1;" vertex="1" parent="1">
          <mxGeometry x="43" y="50" width="120" height="40" as="geometry" />
        </mxCell>
        <mxCell id="cmy7u_Me6npO2hH-PfEE-2" value="Dāvis Lektauers 11.1" style="text;html=1;align=center;verticalAlign=middle;resizable=0;points=[];autosize=1;strokeColor=none;fillColor=none;" vertex="1" parent="1">
          <mxGeometry x="10" y="10" width="130" height="30" as="geometry" />
        </mxCell>
        <mxCell id="cmy7u_Me6npO2hH-PfEE-27" style="edgeStyle=orthogonalEdgeStyle;rounded=0;orthogonalLoop=1;jettySize=auto;html=1;exitX=1;exitY=0.5;exitDx=0;exitDy=0;entryX=0;entryY=0.5;entryDx=0;entryDy=0;" edge="1" parent="1" source="cmy7u_Me6npO2hH-PfEE-4" target="cmy7u_Me6npO2hH-PfEE-16">
          <mxGeometry relative="1" as="geometry" />
        </mxCell>
        <mxCell id="cmy7u_Me6npO2hH-PfEE-29" style="edgeStyle=orthogonalEdgeStyle;rounded=0;orthogonalLoop=1;jettySize=auto;html=1;exitX=0.5;exitY=1;exitDx=0;exitDy=0;entryX=0.5;entryY=0;entryDx=0;entryDy=0;" edge="1" parent="1" source="cmy7u_Me6npO2hH-PfEE-4" target="cmy7u_Me6npO2hH-PfEE-18">
          <mxGeometry relative="1" as="geometry" />
        </mxCell>
        <mxCell id="cmy7u_Me6npO2hH-PfEE-4" value="&lt;div&gt;year % 400 == 0&lt;br&gt;&lt;/div&gt;" style="rhombus;whiteSpace=wrap;html=1;" vertex="1" parent="1">
          <mxGeometry x="19" y="180" width="170" height="50" as="geometry" />
        </mxCell>
        <mxCell id="cmy7u_Me6npO2hH-PfEE-7" style="edgeStyle=orthogonalEdgeStyle;rounded=0;orthogonalLoop=1;jettySize=auto;html=1;entryX=0.5;entryY=0;entryDx=0;entryDy=0;" edge="1" parent="1">
          <mxGeometry relative="1" as="geometry">
            <mxPoint x="100" y="150" as="sourcePoint" />
            <mxPoint x="103" y="180" as="targetPoint" />
          </mxGeometry>
        </mxCell>
        <mxCell id="cmy7u_Me6npO2hH-PfEE-16" value="Garais gads" style="shape=parallelogram;perimeter=parallelogramPerimeter;whiteSpace=wrap;html=1;fixedSize=1;" vertex="1" parent="1">
          <mxGeometry x="255" y="190" width="120" height="30" as="geometry" />
        </mxCell>
        <mxCell id="cmy7u_Me6npO2hH-PfEE-17" value="Nav garais gads" style="shape=parallelogram;perimeter=parallelogramPerimeter;whiteSpace=wrap;html=1;fixedSize=1;" vertex="1" parent="1">
          <mxGeometry x="250" y="270" width="130" height="30" as="geometry" />
        </mxCell>
        <mxCell id="cmy7u_Me6npO2hH-PfEE-28" style="edgeStyle=orthogonalEdgeStyle;rounded=0;orthogonalLoop=1;jettySize=auto;html=1;exitX=1;exitY=0.5;exitDx=0;exitDy=0;entryX=0;entryY=0.5;entryDx=0;entryDy=0;" edge="1" parent="1" source="cmy7u_Me6npO2hH-PfEE-18" target="cmy7u_Me6npO2hH-PfEE-17">
          <mxGeometry relative="1" as="geometry" />
        </mxCell>
        <mxCell id="cmy7u_Me6npO2hH-PfEE-30" style="edgeStyle=orthogonalEdgeStyle;rounded=0;orthogonalLoop=1;jettySize=auto;html=1;exitX=0.5;exitY=1;exitDx=0;exitDy=0;entryX=0.5;entryY=0;entryDx=0;entryDy=0;" edge="1" parent="1" source="cmy7u_Me6npO2hH-PfEE-18" target="cmy7u_Me6npO2hH-PfEE-19">
          <mxGeometry relative="1" as="geometry" />
        </mxCell>
        <mxCell id="cmy7u_Me6npO2hH-PfEE-18" value="&lt;div&gt;year % 100 == 0&lt;br&gt;&lt;/div&gt;" style="rhombus;whiteSpace=wrap;html=1;" vertex="1" parent="1">
          <mxGeometry x="19" y="260" width="170" height="50" as="geometry" />
        </mxCell>
        <mxCell id="cmy7u_Me6npO2hH-PfEE-26" style="edgeStyle=orthogonalEdgeStyle;rounded=0;orthogonalLoop=1;jettySize=auto;html=1;exitX=1;exitY=0.5;exitDx=0;exitDy=0;entryX=0;entryY=0.5;entryDx=0;entryDy=0;" edge="1" parent="1" source="cmy7u_Me6npO2hH-PfEE-19" target="cmy7u_Me6npO2hH-PfEE-23">
          <mxGeometry relative="1" as="geometry" />
        </mxCell>
        <mxCell id="cmy7u_Me6npO2hH-PfEE-32" value="Jā" style="edgeLabel;html=1;align=center;verticalAlign=middle;resizable=0;points=[];" vertex="1" connectable="0" parent="cmy7u_Me6npO2hH-PfEE-26">
          <mxGeometry x="-0.2096" y="-2" relative="1" as="geometry">
            <mxPoint x="-24" y="-9" as="offset" />
          </mxGeometry>
        </mxCell>
        <mxCell id="cmy7u_Me6npO2hH-PfEE-33" value="Jā" style="edgeLabel;html=1;align=center;verticalAlign=middle;resizable=0;points=[];" vertex="1" connectable="0" parent="cmy7u_Me6npO2hH-PfEE-26">
          <mxGeometry x="-0.2096" y="-2" relative="1" as="geometry">
            <mxPoint x="-20" y="-89" as="offset" />
          </mxGeometry>
        </mxCell>
        <mxCell id="cmy7u_Me6npO2hH-PfEE-34" value="Jā" style="edgeLabel;html=1;align=center;verticalAlign=middle;resizable=0;points=[];" vertex="1" connectable="0" parent="cmy7u_Me6npO2hH-PfEE-26">
          <mxGeometry x="-0.2096" y="-2" relative="1" as="geometry">
            <mxPoint x="-18" y="-169" as="offset" />
          </mxGeometry>
        </mxCell>
        <mxCell id="cmy7u_Me6npO2hH-PfEE-35" value="Nē" style="edgeLabel;html=1;align=center;verticalAlign=middle;resizable=0;points=[];" vertex="1" connectable="0" parent="cmy7u_Me6npO2hH-PfEE-26">
          <mxGeometry x="-0.2096" y="-2" relative="1" as="geometry">
            <mxPoint x="-107" y="-128" as="offset" />
          </mxGeometry>
        </mxCell>
        <mxCell id="cmy7u_Me6npO2hH-PfEE-36" value="Nē" style="edgeLabel;html=1;align=center;verticalAlign=middle;resizable=0;points=[];" vertex="1" connectable="0" parent="cmy7u_Me6npO2hH-PfEE-26">
          <mxGeometry x="-0.2096" y="-2" relative="1" as="geometry">
            <mxPoint x="-106" y="-50" as="offset" />
          </mxGeometry>
        </mxCell>
        <mxCell id="cmy7u_Me6npO2hH-PfEE-31" style="edgeStyle=orthogonalEdgeStyle;rounded=0;orthogonalLoop=1;jettySize=auto;html=1;exitX=0.5;exitY=1;exitDx=0;exitDy=0;entryX=0.5;entryY=0;entryDx=0;entryDy=0;" edge="1" parent="1" source="cmy7u_Me6npO2hH-PfEE-19" target="cmy7u_Me6npO2hH-PfEE-21">
          <mxGeometry relative="1" as="geometry" />
        </mxCell>
        <mxCell id="cmy7u_Me6npO2hH-PfEE-38" value="Nē" style="edgeLabel;html=1;align=center;verticalAlign=middle;resizable=0;points=[];" vertex="1" connectable="0" parent="cmy7u_Me6npO2hH-PfEE-31">
          <mxGeometry x="-0.1013" y="-1" relative="1" as="geometry">
            <mxPoint x="11" y="-11" as="offset" />
          </mxGeometry>
        </mxCell>
        <mxCell id="cmy7u_Me6npO2hH-PfEE-19" value="&lt;div&gt;year % 4 == 0&lt;br&gt;&lt;/div&gt;" style="rhombus;whiteSpace=wrap;html=1;" vertex="1" parent="1">
          <mxGeometry x="19" y="340" width="170" height="50" as="geometry" />
        </mxCell>
        <mxCell id="cmy7u_Me6npO2hH-PfEE-21" value="Nav garais gads" style="shape=parallelogram;perimeter=parallelogramPerimeter;whiteSpace=wrap;html=1;fixedSize=1;" vertex="1" parent="1">
          <mxGeometry x="38" y="430" width="130" height="30" as="geometry" />
        </mxCell>
        <mxCell id="cmy7u_Me6npO2hH-PfEE-23" value="Garais gads" style="shape=parallelogram;perimeter=parallelogramPerimeter;whiteSpace=wrap;html=1;fixedSize=1;" vertex="1" parent="1">
          <mxGeometry x="255" y="350" width="120" height="30" as="geometry" />
        </mxCell>
        <mxCell id="cmy7u_Me6npO2hH-PfEE-40" value="year = input(&quot;Ievadiet gadu&quot;)" style="shape=dataStorage;whiteSpace=wrap;html=1;fixedSize=1;size=11.000000000000114;" vertex="1" parent="1">
          <mxGeometry x="8.5" y="120" width="191" height="30" as="geometry" />
        </mxCell>
      </root>
    </mxGraphModel>
  </diagram>
</mxfile>
